<svg xmlns="http://www.w3.org/2000/svg" viewBox="0 0 512 512" fill="none">
  <rect width="512" height="512" rx="80" fill="url(#grad)"/>
  <defs>
    <linearGradient id="grad" x1="0%" y1="0%" x2="100%" y2="100%">
      <stop offset="0%" style="stop-color:#3B82F6"/>
      <stop offset="100%" style="stop-color:#1D4ED8"/>
    </linearGradient>
  </defs>
  <!-- Book icon -->
  <g transform="translate(96, 80) scale(0.625)">
    <path d="M256 48C141.1 48 48 141.1 48 256s93.1 208 208 208 208-93.1 208-208S370.9 48 256 48zm0 368c-88.4 0-160-71.6-160-160S167.6 96 256 96s160 71.6 160 160-71.6 160-160 160z" fill="white" opacity="0.2"/>
    <path d="M352 176H272a16 16 0 0 0-16 16v16a16 16 0 0 0-16-16h-80a16 16 0 0 0-16 16v160a16 16 0 0 0 16 16h80c8.8 0 16 7.2 16 16 0-8.8 7.2-16 16-16h80a16 16 0 0 0 16-16V192a16 16 0 0 0-16-16zm-112 144h-64v-16h64v16zm0-32h-64v-16h64v16zm0-32h-64v-16h64v16zm128 64h-64v-16h64v16zm0-32h-64v-16h64v16zm0-32h-64v-16h64v16z" fill="white"/>
  </g>
  <!-- Checkmark -->
  <circle cx="380" cy="380" r="80" fill="#10B981"/>
  <path d="M350 380l20 20 40-40" stroke="white" stroke-width="12" stroke-linecap="round" stroke-linejoin="round" fill="none"/>
</svg>
